<?xml version="1.0" encoding="UTF-8" standalone="no"?>
<svg
   id="visual"
   viewBox="0 0 900 600"
   width="900"
   height="600"
   version="1.1"
   sodipodi:docname="banner.svg"
   inkscape:version="1.1.1 (3bf5ae0d25, 2021-09-20)"
   xmlns:inkscape="http://www.inkscape.org/namespaces/inkscape"
   xmlns:sodipodi="http://sodipodi.sourceforge.net/DTD/sodipodi-0.dtd"
   xmlns="http://www.w3.org/2000/svg"
   xmlns:svg="http://www.w3.org/2000/svg">
  <defs
     id="defs77" />
  <sodipodi:namedview
     id="namedview75"
     pagecolor="#ffffff"
     bordercolor="#666666"
     borderopacity="1.0"
     inkscape:pageshadow="2"
     inkscape:pageopacity="0.0"
     inkscape:pagecheckerboard="0"
     showgrid="false"
     inkscape:zoom="0.80666667"
     inkscape:cx="449.38017"
     inkscape:cy="300"
     inkscape:window-width="1366"
     inkscape:window-height="699"
     inkscape:window-x="0"
     inkscape:window-y="32"
     inkscape:window-maximized="1"
     inkscape:current-layer="visual" />
  <path
     d="M0 127L15 132C30 137 60 147 90 150C120 153 150 149 180 144C210 139 240 133 270 134C300 135 330 143 360 142C390 141 420 131 450 125C480 119 510 117 540 119C570 121 600 127 630 129C660 131 690 129 720 135C750 141 780 155 810 161C840 167 870 165 885 164L900 163L900 0L885 0C870 0 840 0 810 0C780 0 750 0 720 0C690 0 660 0 630 0C600 0 570 0 540 0C510 0 480 0 450 0C420 0 390 0 360 0C330 0 300 0 270 0C240 0 210 0 180 0C150 0 120 0 90 0C60 0 30 0 15 0L0 0Z"
     fill="#6198ff"
     id="path60" />
  <path
     d="M0 223L15 228C30 233 60 243 90 244C120 245 150 237 180 234C210 231 240 233 270 234C300 235 330 235 360 232C390 229 420 223 450 219C480 215 510 213 540 212C570 211 600 211 630 209C660 207 690 203 720 212C750 221 780 243 810 249C840 255 870 245 885 240L900 235L900 161L885 162C870 163 840 165 810 159C780 153 750 139 720 133C690 127 660 129 630 127C600 125 570 119 540 117C510 115 480 117 450 123C420 129 390 139 360 140C330 141 300 133 270 132C240 131 210 137 180 142C150 147 120 151 90 148C60 145 30 135 15 130L0 125Z"
     fill="#4988ff"
     id="path62" />
  <path
     d="M0 277L15 283C30 289 60 301 90 301C120 301 150 289 180 284C210 279 240 281 270 285C300 289 330 295 360 292C390 289 420 277 450 271C480 265 510 265 540 267C570 269 600 273 630 273C660 273 690 269 720 277C750 285 780 305 810 309C840 313 870 301 885 295L900 289L900 233L885 238C870 243 840 253 810 247C780 241 750 219 720 210C690 201 660 205 630 207C600 209 570 209 540 210C510 211 480 213 450 217C420 221 390 227 360 230C330 233 300 233 270 232C240 231 210 229 180 232C150 235 120 243 90 242C60 241 30 231 15 226L0 221Z"
     fill="#2d77ff"
     id="path64" />
  <path
     d="M0 325L15 329C30 333 60 341 90 342C120 343 150 337 180 333C210 329 240 327 270 328C300 329 330 333 360 330C390 327 420 317 450 314C480 311 510 315 540 317C570 319 600 319 630 318C660 317 690 315 720 322C750 329 780 345 810 348C840 351 870 341 885 336L900 331L900 287L885 293C870 299 840 311 810 307C780 303 750 283 720 275C690 267 660 271 630 271C600 271 570 267 540 265C510 263 480 263 450 269C420 275 390 287 360 290C330 293 300 287 270 283C240 279 210 277 180 282C150 287 120 299 90 299C60 299 30 287 15 281L0 275Z"
     fill="#0066ff"
     id="path66" />
  <path
     d="M0 475L15 477C30 479 60 483 90 486C120 489 150 491 180 491C210 491 240 489 270 488C300 487 330 487 360 486C390 485 420 483 450 481C480 479 510 477 540 478C570 479 600 483 630 482C660 481 690 475 720 475C750 475 780 481 810 482C840 483 870 479 885 477L900 475L900 329L885 334C870 339 840 349 810 346C780 343 750 327 720 320C690 313 660 315 630 316C600 317 570 317 540 315C510 313 480 309 450 312C420 315 390 325 360 328C330 331 300 327 270 326C240 325 210 327 180 331C150 335 120 341 90 340C60 339 30 331 15 327L0 323Z"
     fill="#005de8"
     id="path68" />
  <path
     d="M0 535L15 535C30 535 60 535 90 537C120 539 150 543 180 543C210 543 240 539 270 536C300 533 330 531 360 530C390 529 420 529 450 527C480 525 510 521 540 522C570 523 600 529 630 530C660 531 690 527 720 526C750 525 780 527 810 529C840 531 870 533 885 534L900 535L900 473L885 475C870 477 840 481 810 480C780 479 750 473 720 473C690 473 660 479 630 480C600 481 570 477 540 476C510 475 480 477 450 479C420 481 390 483 360 484C330 485 300 485 270 486C240 487 210 489 180 489C150 489 120 487 90 484C60 481 30 477 15 475L0 473Z"
     fill="#0055d1"
     id="path70" />
  <path
     d="M0 601L15 601C30 601 60 601 90 601C120 601 150 601 180 601C210 601 240 601 270 601C300 601 330 601 360 601C390 601 420 601 450 601C480 601 510 601 540 601C570 601 600 601 630 601C660 601 690 601 720 601C750 601 780 601 810 601C840 601 870 601 885 601L900 601L900 533L885 532C870 531 840 529 810 527C780 525 750 523 720 524C690 525 660 529 630 528C600 527 570 521 540 520C510 519 480 523 450 525C420 527 390 527 360 528C330 529 300 531 270 534C240 537 210 541 180 541C150 541 120 537 90 535C60 533 30 533 15 533L0 533Z"
     fill="#004cbb"
     id="path72" />
  <text
     xml:space="preserve"
     style="font-style:normal;font-variant:normal;font-weight:normal;font-stretch:normal;font-size:64px;line-height:1.25;font-family:'Noto Sans';-inkscape-font-specification:'Noto Sans'"
     x="51.95179"
     y="112.85282"
     id="text2229"><tspan
       sodipodi:role="line"
       id="tspan2227"
       x="51.95179"
       y="112.85282">Catalyst...</tspan><tspan
       sodipodi:role="line"
       x="51.95179"
       y="192.85281"
       id="tspan3001" /><tspan
       sodipodi:role="line"
       x="51.95179"
       y="272.85281"
       id="tspan3003">A brand new electron</tspan><tspan
       sodipodi:role="line"
       x="51.95179"
       y="352.85281"
       id="tspan3005">browser that is stable</tspan><tspan
       sodipodi:role="line"
       x="51.95179"
       y="432.85281"
       id="tspan3007">fast and secure...</tspan></text>
</svg>
