<?xml version="1.0" encoding="UTF-8"?>
<svg width="851pt" height="315pt" style="isolation:isolate" viewBox="0 0 851 315" xmlns="http://www.w3.org/2000/svg">
<defs>
<clipPath id="b">
<rect width="851" height="315"/>
</clipPath>
</defs>
<g clip-path="url(#b)">
<linearGradient id="a" x2="1" y1=".5" y2=".5" gradientTransform="matrix(936.06 0 0 374 -42.532 -29.5)" gradientUnits="userSpaceOnUse">
<stop stop-color="#1847b4" offset="0"/>
<stop stop-color="#9a46d2" offset="1"/>
</linearGradient>
<rect x="-42.532" y="-29.5" width="936.06" height="374" fill="url(#a)"/>
<path d="m448.62 143.18c1.235-1.764 3.122-2.966 5.242-3.34 2.121-0.375 4.305 0.109 6.069 1.344 1.765 1.236 2.966 3.123 3.34 5.243 0.375 2.121-0.109 4.306-1.344 6.07-1.803 2.575-3.881 4.949-6.194 7.078-2.34 2.153-4.91 4.042-7.664 5.632-2.159 1.247-4.422 2.304-6.764 3.16-2.401 0.877-4.874 1.54-7.391 1.984-2.268 0.4-4.565 0.62-6.868 0.658-2.251 0.036-4.502-0.103-6.731-0.418-4.362-0.617-8.604-1.896-12.581-3.793-3.93-1.874-7.556-4.324-10.76-7.27-3.236-2.975-6.001-6.425-8.2-10.229-1.246-2.16-2.304-4.424-3.159-6.766l-1.984-7.391c-0.399-2.268-0.62-4.565-0.658-6.868-0.036-2.251 0.103-4.501 0.417-6.73 0.618-4.363 1.897-8.605 3.794-12.582 1.873-3.929 4.324-7.556 7.271-10.76 2.974-3.236 6.423-6.001 10.229-8.2 2.159-1.246 4.423-2.304 6.764-3.16 2.403-0.876 4.877-1.54 7.395-1.983 2.121-0.373 4.305 0.112 6.068 1.348 1.764 1.236 2.966 3.123 3.339 5.244 0.373 2.12-0.113 4.305-1.349 6.069-1.235 1.763-3.124 2.964-5.243 3.337-1.579 0.278-3.131 0.694-4.637 1.243-1.459 0.533-2.868 1.192-4.213 1.968-2.38 1.376-4.536 3.104-6.396 5.128-1.852 2.012-3.39 4.29-4.567 6.758-1.185 2.485-1.984 5.136-2.37 7.862-0.196 1.388-0.283 2.79-0.26 4.192 0.024 1.447 0.162 2.889 0.414 4.313 0.278 1.58 0.694 3.132 1.244 4.639 0.533 1.459 1.192 2.869 1.967 4.214 1.376 2.38 3.105 4.536 5.129 6.395 2.012 1.852 4.29 3.391 6.757 4.568 2.485 1.185 5.136 1.984 7.862 2.37 1.388 0.196 2.79 0.283 4.192 0.26 1.447-0.024 2.889-0.162 4.314-0.414 1.58-0.278 3.131-0.694 4.638-1.244 1.46-0.533 2.869-1.192 4.214-1.969 1.72-0.993 3.325-2.173 4.787-3.517 1.452-1.337 2.755-2.826 3.887-4.443z" fill="#fff"/>
<path d="m434.59 97.114c-0.984-0.273-1.82-0.925-2.323-1.813-0.504-0.888-0.634-1.94-0.362-2.924 0.272-0.985 0.925-1.821 1.812-2.323 0.888-0.504 1.941-0.635 2.925-0.362 4.903 1.355 9.496 3.651 13.524 6.76 4.046 3.116 7.443 6.996 10 11.419 1.123 1.945 2.075 3.984 2.846 6.093 0.791 2.166 1.389 4.398 1.789 6.668 0.41 2.32 0.61 4.673 0.599 7.029-0.012 2.294-0.227 4.583-0.643 6.839-0.184 1.004-0.762 1.894-1.602 2.473-0.841 0.579-1.878 0.802-2.881 0.616-1.005-0.185-1.894-0.761-2.473-1.602-0.579-0.84-0.801-1.878-0.617-2.882 0.334-1.808 0.507-3.644 0.516-5.482 9e-3 -1.896-0.152-3.788-0.481-5.654-0.323-1.826-0.804-3.621-1.439-5.363-0.618-1.69-1.381-3.325-2.281-4.883-2.054-3.554-4.783-6.669-8.034-9.174-3.239-2.5-6.932-4.346-10.875-5.435z" fill="#fff"/>
<path d="m433.85 170.43-6.91 0.661c-2.265 0.038-4.529-0.103-6.772-0.42-4.389-0.62-8.658-1.907-12.658-3.815-3.953-1.886-7.602-4.351-10.825-7.316-3.255-2.993-6.037-6.463-8.249-10.292-1.254-2.172-2.318-4.449-3.179-6.806l-1.996-7.435-0.662-6.909v-1e-3c-0.037-2.265 0.104-4.529 0.421-6.771 0.62-4.389 1.907-8.658 3.815-12.658 1.886-3.954 4.351-7.602 7.316-10.826 2.992-3.256 6.462-6.037 10.291-8.249 2.172-1.254 4.45-2.318 6.806-3.179l7.436-1.995c2.282-0.403 4.592-0.625 6.909-0.663 2.265-0.036 4.529 0.104 6.772 0.42 4.388 0.621 8.658 1.909 12.658 3.817 3.953 1.885 7.602 4.35 10.825 7.315 3.256 2.992 6.038 6.462 8.25 10.291 1.254 2.173 2.318 4.45 3.179 6.806l1.995 7.436 0.662 6.909c1e-3 1e-3 1e-3 1e-3 0 2e-3 0.037 2.264-0.103 4.528-0.419 6.771-0.621 4.388-1.909 8.658-3.817 12.658-1.885 3.953-4.35 7.602-7.315 10.825-2.992 3.255-6.463 6.037-10.293 8.249-2.172 1.254-4.449 2.318-6.805 3.179l-7.435 1.996zm-2.913-16.517c-1.41 0.248-2.839 0.386-4.272 0.41-1.388 0.023-2.776-0.064-4.151-0.258-2.699-0.382-5.324-1.174-7.785-2.347-2.444-1.166-4.7-2.69-6.693-4.523-2.003-1.842-3.715-3.978-5.077-6.334-0.769-1.332-1.421-2.728-1.949-4.172-0.545-1.492-0.956-3.03-1.232-4.594-0.249-1.41-0.386-2.839-0.409-4.271-0.024-1.389 0.063-2.777 0.257-4.152 0.382-2.699 1.174-5.325 2.347-7.785 1.166-2.444 2.69-4.7 4.523-6.693 1.842-2.004 3.977-3.716 6.334-5.078 1.331-0.769 2.728-1.42 4.172-1.948 1.492-0.545 3.029-0.958 4.594-1.233 1.41-0.249 2.839-0.385 4.271-0.409 1.389-0.023 2.777 0.063 4.152 0.257 2.699 0.382 5.324 1.174 7.785 2.348 2.444 1.165 4.7 2.69 6.692 4.522 2.004 1.842 3.717 3.978 5.079 6.334 0.769 1.332 1.42 2.728 1.948 4.172 0.545 1.492 0.958 3.03 1.232 4.595 0.25 1.41 0.386 2.839 0.41 4.271 0.023 1.389-0.063 2.777-0.257 4.152-0.382 2.699-1.174 5.324-2.348 7.785-1.165 2.444-2.69 4.7-4.522 6.692-1.842 2.004-3.979 3.716-6.335 5.078-1.332 0.769-2.727 1.421-4.172 1.949-1.492 0.544-3.029 0.956-4.594 1.232z" fill="none" fill-rule="evenodd"/>
<path d="m408.25 138.07c-5.774-10.002-2.342-22.811 7.66-28.585 10.002-5.775 22.811-2.343 28.585 7.659 5.775 10.002 2.343 22.811-7.659 28.586s-22.811 2.342-28.586-7.66z" fill="#fff"/>
<path d="m125.97 204.96q0-2.832 0.996-5.62 0.995-2.788 2.898-5.023 1.903-2.234 4.669-3.628 2.765-1.394 6.306-1.394 4.203 0 7.146 1.925t4.359 4.934l-1.328 0.619q-0.885-1.681-2.057-2.832-1.173-1.15-2.545-1.858t-2.832-1.018-2.92-0.31q-3.142 0-5.598 1.261t-4.138 3.297q-1.681 2.036-2.544 4.602-0.863 2.567-0.863 5.178 0 2.876 1.018 5.531 1.017 2.655 2.81 4.669 1.792 2.013 4.226 3.208 2.433 1.195 5.221 1.195 1.505 0 3.054-0.377 1.548-0.376 3.009-1.15 1.46-0.775 2.699-1.969 1.239-1.195 2.124-2.877l1.372 0.531q-0.797 1.77-2.168 3.142-1.372 1.372-3.054 2.301-1.681 0.93-3.562 1.394-1.881 0.465-3.651 0.465-3.23 0-5.907-1.416-2.678-1.416-4.625-3.695t-3.031-5.178q-1.084-2.898-1.084-5.907zm84.665 15.93 13.541-31.418h1.327l13.497 31.418h-1.638l-4.646-10.841h-15.753l-4.647 10.841h-1.681zm6.77-12.169h14.824l-7.39-17.302-7.434 17.302zm100.9-19.249v1.416h-11.771v30.002h-1.549v-30.002h-11.771v-1.416h25.091zm54.131 31.418 13.541-31.418h1.327l13.497 31.418h-1.637l-4.647-10.841h-15.753l-4.647 10.841h-1.681zm6.77-12.169h14.825l-7.39-17.302-7.435 17.302zm103.16 12.169h-20.798v-31.418h1.549v30.002h19.249v1.416zm51.918-31.418h1.726l11.55 17.833 11.682-17.833h1.682l-12.568 19.382v12.036h-1.548v-12.125l-12.524-19.293zm105.77 3.496-0.841 1.15q-1.726-1.903-3.806-2.677-2.079-0.774-4.867-0.774-5.001 0-7.257 1.902-2.257 1.903-2.257 5.089 0 1.593 0.553 2.678 0.553 1.084 1.704 1.836 1.15 0.752 2.964 1.261 1.815 0.509 4.337 1.04 2.567 0.531 4.646 1.151 2.08 0.619 3.541 1.571 1.46 0.951 2.256 2.367 0.797 1.416 0.797 3.496 0 1.991-0.774 3.496-0.775 1.504-2.235 2.522t-3.518 1.527-4.58 0.509q-3.762 0-6.771-1.173t-5.575-3.607l0.929-1.106q2.213 2.257 5.045 3.408 2.832 1.15 6.416 1.15 4.425 0 6.97-1.615 2.544-1.615 2.544-4.934 0-1.682-0.619-2.854-0.62-1.173-1.881-1.992-1.261-0.818-3.186-1.416-1.925-0.597-4.536-1.128-2.567-0.531-4.536-1.106-1.969-0.576-3.319-1.461-1.349-0.885-2.035-2.168t-0.686-3.23q0-2.08 0.796-3.695 0.797-1.616 2.235-2.7t3.474-1.659q2.035-0.575 4.514-0.575 3.053 0 5.354 0.885t4.204 2.832zm84.753-3.496v1.416h-11.771v30.002h-1.549v-30.002h-11.771v-1.416h25.091z" fill="#fff"/>
</g>
</svg>
