<?xml version="1.0" encoding="iso-8859-1"?>
<!-- Uploaded to: SVG Repo, www.svgrepo.com, Generator: SVG Repo Mixer Tools -->
<!DOCTYPE svg PUBLIC "-//W3C//DTD SVG 1.1//EN" "http://www.w3.org/Graphics/SVG/1.1/DTD/svg11.dtd">
<svg fill="#000000" height="800px" width="800px" version="1.1" id="Capa_1" xmlns="http://www.w3.org/2000/svg" xmlns:xlink="http://www.w3.org/1999/xlink" 
	 viewBox="0 0 56 56" xml:space="preserve">
<g>
	<path d="M48.985,49.293l-6.798-6.798l6.483-3.241l-17.637-6.498l6.498,17.638l3.242-6.484l6.797,6.797
		C47.767,50.902,48.022,51,48.278,51s0.512-0.098,0.707-0.293C49.376,50.316,49.376,49.684,48.985,49.293z M34.409,36.131
		l9.232,3.402l-3.887,1.943l-1.943,3.888L34.409,36.131z"/>
	<polygon points="40.722,11 40.722,0 23.722,0 6.722,0 6.722,11 23.722,11 	"/>
	<path d="M40.722,32.063V13h-17h-17v41.443C6.722,55.302,7.421,56,8.281,56c0.412,0,0.801-0.162,1.091-0.452L23.722,41l9.716,9.85
		l-9.154-24.844L40.722,32.063z"/>
</g>
</svg>