<svg width="270" height="459" viewBox="0 0 270 459" fill="none" xmlns="http://www.w3.org/2000/svg">
<path d="M217.467 457.985C204.212 457.949 193.496 447.174 193.532 433.919L194.651 24.8596C194.688 11.6049 205.462 0.889139 218.717 0.925399L244.667 0.996386C257.922 1.03265 268.637 11.8072 268.601 25.0619L267.482 434.122C267.446 447.376 256.671 458.092 243.416 458.056L217.467 457.985Z" fill="#3730A3"/>
<path d="M24 265C10.7452 265 -8.82149e-06 254.255 -8.82149e-06 241L-8.82149e-06 25C-8.82149e-06 11.7452 10.7452 1.00002 24 1.00002H50C63.2548 1.00002 74 11.7452 74 25V241C74 254.255 63.2548 265 50 265H24Z" fill="#4F46E5"/>
<rect x="1.00006" y="201.422" width="267.672" height="65.5921" rx="24" transform="rotate(-0.518366 1.00006 201.422)" fill="#4338CA"/>
</svg>
