<svg xmlns="http://www.w3.org/2000/svg" xmlns:xlink="http://www.w3.org/1999/xlink" version="1.1" width="256" height="256" viewBox="0 0 256 256" xml:space="preserve">

<defs>
</defs>
<g style="stroke: none; stroke-width: 0; stroke-dasharray: none; stroke-linecap: butt; stroke-linejoin: miter; stroke-miterlimit: 10; fill: none; fill-rule: nonzero; opacity: 1;" transform="translate(1.4065934065934016 1.4065934065934016) scale(2.81 2.81)" >
	<path d="M 45 55.425 c -0.531 0 -1.062 -0.21 -1.455 -0.627 c -0.758 -0.803 -0.722 -2.069 0.081 -2.827 l 9.83 -9.281 c 2.079 -2.14 3.258 -5.041 3.258 -8.11 v -0.365 c 0 -3.187 -1.257 -6.167 -3.539 -8.391 c -2.282 -2.223 -5.299 -3.407 -8.486 -3.32 c -6.289 0.162 -11.405 5.554 -11.405 12.02 c 0 1.104 -0.896 2 -2 2 s -2 -0.896 -2 -2 c 0 -8.616 6.864 -15.801 15.302 -16.019 c 4.291 -0.091 8.32 1.472 11.38 4.454 c 3.062 2.984 4.748 6.981 4.748 11.255 v 0.365 c 0 4.117 -1.581 8.009 -4.451 10.959 l -9.891 9.34 C 45.986 55.244 45.493 55.425 45 55.425 z" style="stroke: none; stroke-width: 1; stroke-dasharray: none; stroke-linecap: butt; stroke-linejoin: miter; stroke-miterlimit: 10; fill: rgb(0,0,0); fill-rule: nonzero; opacity: 1;" transform=" matrix(1 0 0 1 0 0) " stroke-linecap="round" />
	<path d="M 45 62.195 c -1.104 0 -2 -0.896 -2 -2 v -6.771 c 0 -1.104 0.896 -2 2 -2 s 2 0.896 2 2 v 6.771 C 47 61.3 46.104 62.195 45 62.195 z" style="stroke: none; stroke-width: 1; stroke-dasharray: none; stroke-linecap: butt; stroke-linejoin: miter; stroke-miterlimit: 10; fill: rgb(0,0,0); fill-rule: nonzero; opacity: 1;" transform=" matrix(1 0 0 1 0 0) " stroke-linecap="round" />
	<path d="M 45 72.43 c -0.79 0 -1.56 -0.32 -2.12 -0.88 S 42 70.22 42 69.43 s 0.32 -1.56 0.88 -2.12 c 0.7 -0.7 1.73 -1.02 2.71 -0.819 c 0.19 0.04 0.38 0.09 0.56 0.17 c 0.181 0.069 0.351 0.17 0.521 0.279 c 0.16 0.11 0.31 0.23 0.45 0.37 C 47.68 67.87 48 68.64 48 69.43 s -0.32 1.561 -0.88 2.12 c -0.141 0.14 -0.29 0.27 -0.45 0.38 c -0.17 0.101 -0.34 0.2 -0.521 0.271 c -0.18 0.08 -0.37 0.13 -0.56 0.17 C 45.39 72.41 45.2 72.43 45 72.43 z" style="stroke: none; stroke-width: 1; stroke-dasharray: none; stroke-linecap: butt; stroke-linejoin: miter; stroke-miterlimit: 10; fill: rgb(0,0,0); fill-rule: nonzero; opacity: 1;" transform=" matrix(1 0 0 1 0 0) " stroke-linecap="round" />
	<path d="M 45 90 C 20.187 90 0 69.813 0 45 S 20.187 0 45 0 s 45 20.187 45 45 S 69.813 90 45 90 z M 45 4 C 22.393 4 4 22.393 4 45 s 18.393 41 41 41 s 41 -18.393 41 -41 S 67.607 4 45 4 z" style="stroke: none; stroke-width: 1; stroke-dasharray: none; stroke-linecap: butt; stroke-linejoin: miter; stroke-miterlimit: 10; fill: rgb(0,0,0); fill-rule: nonzero; opacity: 1;" transform=" matrix(1 0 0 1 0 0) " stroke-linecap="round" />
</g>
</svg>